<?xml version="1.0" standalone="no"?>
<!DOCTYPE svg PUBLIC "-//W3C//DTD SVG 20010904//EN"
 "http://www.w3.org/TR/2001/REC-SVG-20010904/DTD/svg10.dtd">
<svg version="1.0" xmlns="http://www.w3.org/2000/svg"
 width="500.000000pt" height="500.000000pt" viewBox="0 0 500.000000 500.000000"
 preserveAspectRatio="xMidYMid meet">

<g transform="translate(0.000000,500.000000) scale(0.100000,-0.100000)"
fill="#000000" stroke="none">
<path d="M3029 4154 c-110 -20 -258 -75 -347 -130 -89 -55 -229 -191 -287
-279 -117 -178 -159 -323 -191 -670 -18 -199 -32 -263 -79 -364 -74 -156 -184
-289 -325 -393 -118 -87 -216 -128 -306 -128 -37 0 -50 6 -85 40 -42 39 -42
40 -23 61 10 11 53 45 96 75 159 111 267 232 329 369 52 116 91 306 75 369 -9
37 -41 66 -72 66 -67 0 -417 -127 -627 -227 l-117 -56 -238 116 c-245 120
-446 197 -518 197 -31 0 -46 -6 -65 -26 -22 -23 -24 -33 -22 -113 2 -106 28
-267 55 -338 40 -107 181 -265 329 -369 91 -64 153 -128 167 -175 6 -19 13
-63 17 -98 21 -209 246 -563 449 -705 108 -76 181 -116 272 -151 49 -18 93
-40 98 -49 14 -20 -13 -48 -143 -149 -139 -108 -171 -142 -171 -182 0 -43 51
-88 122 -110 77 -24 267 -30 503 -16 231 14 344 34 460 80 123 50 184 92 322
225 71 68 137 128 148 133 11 6 45 11 76 12 90 2 204 44 369 136 25 14 51 25
58 25 23 0 92 -40 184 -106 102 -75 223 -139 288 -153 25 -6 151 -14 280 -17
321 -9 419 7 455 76 38 73 14 100 -186 206 -254 134 -359 253 -469 535 -48
124 -75 225 -89 334 -15 124 -34 499 -29 579 6 95 41 172 104 228 26 24 80 74
118 111 l71 68 40 -44 c22 -24 75 -82 118 -130 46 -51 86 -87 97 -87 28 0 50
39 50 86 0 46 -42 119 -124 214 -79 92 -86 116 -57 193 l11 29 113 -107 c135
-129 148 -137 182 -105 34 32 41 79 19 125 -24 51 -113 119 -204 156 -41 16
-84 34 -96 39 -20 8 -21 10 -7 77 8 37 13 92 10 122 -7 97 -54 120 -278 140
-120 10 -141 19 -219 88 -112 100 -195 141 -338 169 -92 17 -272 17 -373 -2z
m314 -209 c74 -19 133 -49 263 -135 65 -43 128 -76 162 -86 89 -24 130 -45
174 -87 73 -71 86 -143 42 -237 -19 -42 -64 -94 -184 -215 -92 -93 -167 -178
-180 -204 -40 -80 -50 -160 -50 -411 0 -276 -13 -491 -35 -575 -20 -76 -81
-206 -136 -287 -90 -132 -197 -224 -344 -294 -49 -24 -91 -41 -93 -39 -2 2 5
32 17 67 32 98 62 263 68 375 6 99 5 102 -20 127 -20 20 -36 26 -70 26 -54 0
-114 -23 -120 -47 -11 -39 -16 -73 -32 -197 -9 -71 -26 -159 -37 -195 -75
-246 -325 -471 -593 -532 -68 -16 -137 -22 -280 -25 l-190 -5 32 21 c17 11 38
32 47 45 9 13 55 50 103 82 191 125 377 358 449 563 27 77 44 231 30 284 -8
31 -59 66 -97 66 -61 0 -108 -77 -128 -207 -30 -194 -150 -385 -284 -451 l-47
-24 -68 22 c-163 53 -334 160 -459 287 -136 138 -212 266 -258 433 -14 52 -39
138 -55 190 -34 110 -46 124 -225 262 -153 118 -232 210 -279 322 -30 72 -25
72 139 7 168 -68 253 -112 321 -167 107 -87 122 -95 153 -80 15 8 48 32 75 54
26 22 91 61 143 87 114 56 321 137 340 133 15 -3 -59 -177 -95 -222 -37 -48
-114 -104 -229 -167 -158 -88 -158 -88 -157 -212 0 -87 4 -110 26 -158 35 -76
78 -122 140 -150 45 -19 70 -23 163 -23 98 -1 120 3 195 30 47 16 119 52 160
79 106 69 293 258 370 375 151 230 190 352 220 693 33 381 177 616 456 748 45
22 108 45 140 53 79 19 245 20 317 1z m402 -2220 c36 -134 75 -197 208 -332
l122 -125 -75 8 c-41 3 -106 17 -143 30 -117 39 -307 158 -307 192 0 10 25 60
55 112 31 52 65 114 76 138 11 23 26 42 33 42 8 0 20 -27 31 -65z"/>
<path d="M3269 3753 c-38 -32 -60 -81 -52 -114 23 -90 132 -139 197 -88 78 62
73 159 -12 207 -53 30 -93 28 -133 -5z"/>
<path d="M3569 3531 c-140 -61 -305 -165 -353 -221 -31 -38 -34 -80 -6 -105
19 -17 25 -17 58 -6 20 8 84 41 142 74 124 71 235 132 305 167 46 23 50 28 48
58 -3 81 -62 91 -194 33z"/>
<path d="M3670 3368 c-79 -50 -251 -198 -296 -257 -52 -68 -40 -141 24 -141
38 0 336 241 379 306 13 20 13 29 3 54 -13 30 -45 60 -65 60 -5 0 -26 -10 -45
-22z"/>
</g>
</svg>
